<svg version="1.2" xmlns="http://www.w3.org/2000/svg" viewBox="0 0 900 337" width="900" height="337"><style>.a{fill:#5956d1}.b{fill:#4930b7}</style><path class="a" d="m0 190l15 6.7c15 6.6 45 20 75 26 30 6 60 4.6 90 7.6 30 3 60 10.4 90 9.5 30-0.8 60-9.8 90-11.3 30-1.5 60 4.5 90 11.3 30 6.9 60 14.5 90 4 30-10.5 60-39.1 90-39.1 30 0 60 28.6 90 44.5 30 15.8 60 18.8 90 15.8 30-3 60-12 75-16.5l15-4.5v-182l-15 0.7c-15 0.6-45 2-75-7-30-9-60-28.4-90-25.4-30 3-60 28.4-90 26.9-30-1.5-60-29.9-90-36.5-30-6.7-60 8.3-90 9.8-30 1.5-60-10.5-90-3-30 7.5-60 34.5-90 29.2-30-5.4-60-43-90-45.4-30-2.3-60 30.7-90 35.2-30 4.5-60-19.5-75-31.5l-15-12z"/><path class="b" d="m0 338h15c15 0 45 0 75 0q45 0 90 0 45 0 90 0 45 0 90 0 45 0 90 0 45 0 90 0 45 0 90 0 45 0 90 0 45 0 90 0c30 0 60 0 75 0h15v-96l-15 4.5c-15 4.5-45 13.5-75 16.5-30 3-60 0-90-15.8-30-15.9-60-44.5-90-44.5-30 0-60 28.6-90 39.1-30 10.5-60 2.9-90-4-30-6.8-60-12.8-90-11.3-30 1.5-60 10.5-90 11.3-30 0.9-60-6.5-90-9.5-30-3-60-1.6-90-7.6-30-6-60-19.4-75-26l-15-6.7z"/></svg>