<svg id="visual" viewBox="0 0 900 600" width="900" height="600" xmlns="http://www.w3.org/2000/svg" xmlns:xlink="http://www.w3.org/1999/xlink" version="1.1"><path d="M0 79L13.7 71C27.3 63 54.7 47 82 41C109.3 35 136.7 39 163.8 42C191 45 218 47 245.2 48C272.3 49 299.7 49 327 52C354.3 55 381.7 61 409 64C436.3 67 463.7 67 491 62C518.3 57 545.7 47 573 41C600.3 35 627.7 33 654.8 40C682 47 709 63 736.2 66C763.3 69 790.7 59 818 55C845.3 51 872.7 53 886.3 54L900 55L900 0L886.3 0C872.7 0 845.3 0 818 0C790.7 0 763.3 0 736.2 0C709 0 682 0 654.8 0C627.7 0 600.3 0 573 0C545.7 0 518.3 0 491 0C463.7 0 436.3 0 409 0C381.7 0 354.3 0 327 0C299.7 0 272.3 0 245.2 0C218 0 191 0 163.8 0C136.7 0 109.3 0 82 0C54.7 0 27.3 0 13.7 0L0 0Z" fill="#feedbb"></path><path d="M0 331L13.7 299C27.3 267 54.7 203 82 176C109.3 149 136.7 159 163.8 175C191 191 218 213 245.2 210C272.3 207 299.7 179 327 171C354.3 163 381.7 175 409 184C436.3 193 463.7 199 491 209C518.3 219 545.7 233 573 251C600.3 269 627.7 291 654.8 292C682 293 709 273 736.2 257C763.3 241 790.7 229 818 227C845.3 225 872.7 233 886.3 237L900 241L900 53L886.3 52C872.7 51 845.3 49 818 53C790.7 57 763.3 67 736.2 64C709 61 682 45 654.8 38C627.7 31 600.3 33 573 39C545.7 45 518.3 55 491 60C463.7 65 436.3 65 409 62C381.7 59 354.3 53 327 50C299.7 47 272.3 47 245.2 46C218 45 191 43 163.8 40C136.7 37 109.3 33 82 39C54.7 45 27.3 61 13.7 69L0 77Z" fill="#fee9ae"></path><path d="M0 427L13.7 410C27.3 393 54.7 359 82 340C109.3 321 136.7 317 163.8 327C191 337 218 361 245.2 370C272.3 379 299.7 373 327 365C354.3 357 381.7 347 409 353C436.3 359 463.7 381 491 383C518.3 385 545.7 367 573 367C600.3 367 627.7 385 654.8 390C682 395 709 387 736.2 376C763.3 365 790.7 351 818 344C845.3 337 872.7 337 886.3 337L900 337L900 239L886.3 235C872.7 231 845.3 223 818 225C790.7 227 763.3 239 736.2 255C709 271 682 291 654.8 290C627.7 289 600.3 267 573 249C545.7 231 518.3 217 491 207C463.7 197 436.3 191 409 182C381.7 173 354.3 161 327 169C299.7 177 272.3 205 245.2 208C218 211 191 189 163.8 173C136.7 157 109.3 147 82 174C54.7 201 27.3 265 13.7 297L0 329Z" fill="#ffe6a1"></path><path d="M0 499L13.7 482C27.3 465 54.7 431 82 414C109.3 397 136.7 397 163.8 401C191 405 218 413 245.2 415C272.3 417 299.7 413 327 410C354.3 407 381.7 405 409 416C436.3 427 463.7 451 491 454C518.3 457 545.7 439 573 436C600.3 433 627.7 445 654.8 446C682 447 709 437 736.2 430C763.3 423 790.7 419 818 415C845.3 411 872.7 407 886.3 405L900 403L900 335L886.3 335C872.7 335 845.3 335 818 342C790.7 349 763.3 363 736.2 374C709 385 682 393 654.8 388C627.7 383 600.3 365 573 365C545.7 365 518.3 383 491 381C463.7 379 436.3 357 409 351C381.7 345 354.3 355 327 363C299.7 371 272.3 377 245.2 368C218 359 191 335 163.8 325C136.7 315 109.3 319 82 338C54.7 357 27.3 391 13.7 408L0 425Z" fill="#ffe396"></path><path d="M0 541L13.7 536C27.3 531 54.7 521 82 508C109.3 495 136.7 479 163.8 484C191 489 218 515 245.2 521C272.3 527 299.7 513 327 504C354.3 495 381.7 491 409 496C436.3 501 463.7 515 491 512C518.3 509 545.7 489 573 492C600.3 495 627.7 521 654.8 522C682 523 709 499 736.2 488C763.3 477 790.7 479 818 476C845.3 473 872.7 465 886.3 461L900 457L900 401L886.3 403C872.7 405 845.3 409 818 413C790.7 417 763.3 421 736.2 428C709 435 682 445 654.8 444C627.7 443 600.3 431 573 434C545.7 437 518.3 455 491 452C463.7 449 436.3 425 409 414C381.7 403 354.3 405 327 408C299.7 411 272.3 415 245.2 413C218 411 191 403 163.8 399C136.7 395 109.3 395 82 412C54.7 429 27.3 463 13.7 480L0 497Z" fill="#ffe08b"></path><path d="M0 601L13.7 601C27.3 601 54.7 601 82 601C109.3 601 136.7 601 163.8 601C191 601 218 601 245.2 601C272.3 601 299.7 601 327 601C354.3 601 381.7 601 409 601C436.3 601 463.7 601 491 601C518.3 601 545.7 601 573 601C600.3 601 627.7 601 654.8 601C682 601 709 601 736.2 601C763.3 601 790.7 601 818 601C845.3 601 872.7 601 886.3 601L900 601L900 455L886.3 459C872.7 463 845.3 471 818 474C790.7 477 763.3 475 736.2 486C709 497 682 521 654.8 520C627.7 519 600.3 493 573 490C545.7 487 518.3 507 491 510C463.7 513 436.3 499 409 494C381.7 489 354.3 493 327 502C299.7 511 272.3 525 245.2 519C218 513 191 487 163.8 482C136.7 477 109.3 493 82 506C54.7 519 27.3 529 13.7 534L0 539Z" fill="#ffdd81"></path></svg>