<svg id="visual" viewBox="0 0 900 600" width="900" height="600" xmlns="http://www.w3.org/2000/svg" xmlns:xlink="http://www.w3.org/1999/xlink" version="1.1"><path d="M0 67L13.7 70C27.3 73 54.7 79 82 76C109.3 73 136.7 61 163.8 53C191 45 218 41 245.2 38C272.3 35 299.7 33 327 43C354.3 53 381.7 75 409 75C436.3 75 463.7 53 491 47C518.3 41 545.7 51 573 51C600.3 51 627.7 41 654.8 37C682 33 709 35 736.2 45C763.3 55 790.7 73 818 80C845.3 87 872.7 83 886.3 81L900 79L900 0L886.3 0C872.7 0 845.3 0 818 0C790.7 0 763.3 0 736.2 0C709 0 682 0 654.8 0C627.7 0 600.3 0 573 0C545.7 0 518.3 0 491 0C463.7 0 436.3 0 409 0C381.7 0 354.3 0 327 0C299.7 0 272.3 0 245.2 0C218 0 191 0 163.8 0C136.7 0 109.3 0 82 0C54.7 0 27.3 0 13.7 0L0 0Z" fill="#8f94f9"></path><path d="M0 103L13.7 105C27.3 107 54.7 111 82 112C109.3 113 136.7 111 163.8 105C191 99 218 89 245.2 86C272.3 83 299.7 87 327 99C354.3 111 381.7 131 409 135C436.3 139 463.7 127 491 123C518.3 119 545.7 123 573 121C600.3 119 627.7 111 654.8 105C682 99 709 95 736.2 99C763.3 103 790.7 115 818 125C845.3 135 872.7 143 886.3 147L900 151L900 77L886.3 79C872.7 81 845.3 85 818 78C790.7 71 763.3 53 736.2 43C709 33 682 31 654.8 35C627.7 39 600.3 49 573 49C545.7 49 518.3 39 491 45C463.7 51 436.3 73 409 73C381.7 73 354.3 51 327 41C299.7 31 272.3 33 245.2 36C218 39 191 43 163.8 51C136.7 59 109.3 71 82 74C54.7 77 27.3 71 13.7 68L0 65Z" fill="#7b81f6"></path><path d="M0 313L13.7 307C27.3 301 54.7 289 82 297C109.3 305 136.7 333 163.8 333C191 333 218 305 245.2 293C272.3 281 299.7 285 327 279C354.3 273 381.7 257 409 247C436.3 237 463.7 233 491 235C518.3 237 545.7 245 573 246C600.3 247 627.7 241 654.8 251C682 261 709 287 736.2 296C763.3 305 790.7 297 818 294C845.3 291 872.7 293 886.3 294L900 295L900 149L886.3 145C872.7 141 845.3 133 818 123C790.7 113 763.3 101 736.2 97C709 93 682 97 654.8 103C627.7 109 600.3 117 573 119C545.7 121 518.3 117 491 121C463.7 125 436.3 137 409 133C381.7 129 354.3 109 327 97C299.7 85 272.3 81 245.2 84C218 87 191 97 163.8 103C136.7 109 109.3 111 82 110C54.7 109 27.3 105 13.7 103L0 101Z" fill="#666ef3"></path><path d="M0 421L13.7 414C27.3 407 54.7 393 82 394C109.3 395 136.7 411 163.8 404C191 397 218 367 245.2 361C272.3 355 299.7 373 327 372C354.3 371 381.7 351 409 339C436.3 327 463.7 323 491 326C518.3 329 545.7 339 573 336C600.3 333 627.7 317 654.8 321C682 325 709 349 736.2 358C763.3 367 790.7 361 818 360C845.3 359 872.7 363 886.3 365L900 367L900 293L886.3 292C872.7 291 845.3 289 818 292C790.7 295 763.3 303 736.2 294C709 285 682 259 654.8 249C627.7 239 600.3 245 573 244C545.7 243 518.3 235 491 233C463.7 231 436.3 235 409 245C381.7 255 354.3 271 327 277C299.7 283 272.3 279 245.2 291C218 303 191 331 163.8 331C136.7 331 109.3 303 82 295C54.7 287 27.3 299 13.7 305L0 311Z" fill="#565de5"></path><path d="M0 547L13.7 545C27.3 543 54.7 539 82 538C109.3 537 136.7 539 163.8 531C191 523 218 505 245.2 495C272.3 485 299.7 483 327 493C354.3 503 381.7 525 409 527C436.3 529 463.7 511 491 506C518.3 501 545.7 509 573 508C600.3 507 627.7 497 654.8 504C682 511 709 535 736.2 539C763.3 543 790.7 527 818 518C845.3 509 872.7 507 886.3 506L900 505L900 365L886.3 363C872.7 361 845.3 357 818 358C790.7 359 763.3 365 736.2 356C709 347 682 323 654.8 319C627.7 315 600.3 331 573 334C545.7 337 518.3 327 491 324C463.7 321 436.3 325 409 337C381.7 349 354.3 369 327 370C299.7 371 272.3 353 245.2 359C218 365 191 395 163.8 402C136.7 409 109.3 393 82 392C54.7 391 27.3 405 13.7 412L0 419Z" fill="#4c51cd"></path><path d="M0 601L13.7 601C27.3 601 54.7 601 82 601C109.3 601 136.7 601 163.8 601C191 601 218 601 245.2 601C272.3 601 299.7 601 327 601C354.3 601 381.7 601 409 601C436.3 601 463.7 601 491 601C518.3 601 545.7 601 573 601C600.3 601 627.7 601 654.8 601C682 601 709 601 736.2 601C763.3 601 790.7 601 818 601C845.3 601 872.7 601 886.3 601L900 601L900 503L886.3 504C872.7 505 845.3 507 818 516C790.7 525 763.3 541 736.2 537C709 533 682 509 654.8 502C627.7 495 600.3 505 573 506C545.7 507 518.3 499 491 504C463.7 509 436.3 527 409 525C381.7 523 354.3 501 327 491C299.7 481 272.3 483 245.2 493C218 503 191 521 163.8 529C136.7 537 109.3 535 82 536C54.7 537 27.3 541 13.7 543L0 545Z" fill="#4144b6"></path></svg>